<?xml version="1.0" encoding="UTF-8" standalone="no"?>
<!-- Created with Inkscape (http://www.inkscape.org/) -->

<svg
   version="1.1"
   id="svg1"
   width="650"
   height="750"
   viewBox="0 0 650 750"
   sodipodi:docname="logo.svg"
   inkscape:version="1.3 (0e150ed6c4, 2023-07-21)"
   xmlns:inkscape="http://www.inkscape.org/namespaces/inkscape"
   xmlns:sodipodi="http://sodipodi.sourceforge.net/DTD/sodipodi-0.dtd"
   xmlns="http://www.w3.org/2000/svg"
   xmlns:svg="http://www.w3.org/2000/svg">
  <defs
     id="defs1">
    <rect
       x="256"
       y="727"
       width="515.47986"
       height="131.29115"
       id="rect3" />
    <rect
       x="256"
       y="858.29114"
       width="44.068089"
       height="54.537342"
       id="rect2" />
    <rect
       x="256"
       y="727"
       width="515.47986"
       height="131.29115"
       id="rect1" />
  </defs>
  <sodipodi:namedview
     id="namedview1"
     pagecolor="#ffffff"
     bordercolor="#000000"
     borderopacity="0.25"
     inkscape:showpageshadow="2"
     inkscape:pageopacity="0.0"
     inkscape:pagecheckerboard="0"
     inkscape:deskcolor="#d1d1d1"
     inkscape:zoom="0.75878906"
     inkscape:cx="268.19048"
     inkscape:cy="373.62162"
     inkscape:window-width="1920"
     inkscape:window-height="991"
     inkscape:window-x="-9"
     inkscape:window-y="-9"
     inkscape:window-maximized="1"
     inkscape:current-layer="g1" />
  <g
     inkscape:groupmode="layer"
     inkscape:label="Image"
     id="g1"
     transform="translate(-192.39572,-123.95676)">
    <path
       style="fill:#000000"
       d="m 359.48822,686.06684 c -9.02956,-0.73119 -11.94271,-0.12759 53.59842,-11.10541 32.34045,-5.41686 56.42171,-9.93773 60.71685,-11.3986 16.33071,-5.55443 26.79417,-17.43091 30.65802,-34.79816 2.75108,-12.36561 1.80847,-105.04785 -1.14794,-112.87082 -4.15752,-11.00122 -2.38515,-8.9532 -63.26451,-73.10403 C 421.10752,422.83042 398.80839,399.3 390.49544,390.5 c -34.7037,-36.73695 -69.47491,-73.1989 -72.47589,-76 -1.76775,-1.65 -4.02356,-4.125 -5.01293,-5.5 l -1.79884,-2.5 59.14022,0.15642 59.14022,0.15641 8.73834,9.34359 c 4.80608,5.13897 8.74358,9.6762 8.75,10.08273 0.006,0.40653 -18.9592,0.85653 -42.1458,1 l -42.15745,0.26085 6.80222,7.5 c 3.74123,4.125 10.01635,10.875 13.94472,15 3.92837,4.125 17.68261,18.75 30.56497,32.5 12.88236,13.75 33.59666,35.575 46.03178,48.5 12.43513,12.925 30.41496,31.7125 39.95519,41.75 9.54023,10.0375 17.66434,18.25 18.05359,18.25 0.38925,0 2.64238,-2.1375 5.00696,-4.75 2.36458,-2.6125 16.93439,-18.0074 32.37736,-34.21089 15.44297,-16.2035 31.18663,-32.8535 34.98592,-37 C 594.19531,410.8926 601.4038,403.225 606.41489,398 c 5.01109,-5.225 22.28898,-23.3375 38.39531,-40.25 L 674.09445,327 h -43.14408 -43.14408 l 9.36731,-10.0767 9.36732,-10.0767 57.97365,0.0816 c 31.88551,0.0449 58.34272,0.0794 58.79382,0.0767 0.45109,-0.003 -13.50344,14.95759 -31.01007,33.24509 -17.50662,18.2875 -42.5881,44.725 -55.73662,58.75 -13.14852,14.025 -29.13133,30.9 -35.51735,37.5 -17.02725,17.59777 -54.09116,57.15799 -59.37463,63.37359 -6.03235,7.0966 -9.41146,14.23383 -11.26393,23.79126 -2.23625,11.5374 -1.41373,98.94298 1.014,107.7537 3.71281,13.47451 13.01357,25.149 24.06711,30.20948 7.05432,3.22957 18.85626,5.54935 78.3053,15.39162 26.72679,4.42484 48.735,8.186 48.90713,8.35813 1.57025,1.57025 -304.27698,2.22229 -323.21111,0.68906 z m 220.37244,-45.72245 c -1.56626,-1.88941 -2.27521,-145.02331 -0.73888,-149.17641 1.23877,-3.34871 3.86884,-3.88324 6.0222,-1.22395 2.63603,3.25535 2.89818,147.85917 0.27281,150.48454 -2.0205,2.0205 -3.8342,1.99302 -5.55613,-0.0842 z M 449.48125,637.75 c -0.29979,-1.2375 -0.42086,-30.77601 -0.26905,-65.64113 0.2611,-59.96574 0.37397,-63.45105 2.08867,-64.5 1.47646,-0.90321 2.17196,-0.67102 3.75,1.25191 2.39343,2.91655 3.10082,127.57575 0.73735,129.93922 -2.05549,2.05549 -5.7017,1.44846 -6.30697,-1.05 z m -53.37707,-1.11028 c -2.14235,-2.58137 -1.03818,-148.65562 1.13404,-150.02571 1.27636,-0.80504 2.22364,-0.80504 3.5,0 1.63704,1.03254 1.76656,5.86639 2.00649,74.88461 C 403.01017,637.8636 403.00348,638 398.98822,638 c -0.96531,0 -2.26313,-0.61212 -2.88404,-1.36028 z m 236.91922,-0.57398 c -0.68945,-1.28826 -1.03518,-29.34235 -1.03518,-84 0,-80.41862 0.0397,-82.10543 1.97732,-84.04306 2.15353,-2.15353 4.43549,-1.82696 5.62256,0.80464 1.8538,4.10966 1.70543,165.17784 -0.15405,167.23254 -2.24432,2.47995 -5.08517,2.48255 -6.41065,0.006 z M 364.48822,634.05455 C 358.8818,631.75961 338.66272,608.14054 326.77539,590 284.93198,526.14534 277.18461,438.35063 307.14278,367.51967 c 4.64047,-10.97158 9.51245,-13.69637 14.67113,-8.20522 2.99054,3.18329 2.81478,4.56534 -2.36053,18.56185 -30.67834,82.96891 -13.35307,171.39446 46.68168,238.25618 7.98606,8.8942 9.0215,13.01675 4.2183,16.79494 -2.9026,2.28319 -2.99674,2.30128 -5.86514,1.12713 z m 298.95455,-1.5091 c -4.63175,-4.63174 -3.52764,-7.7821 6.67487,-19.04545 59.97057,-66.20618 76.10367,-154.2363 43.82365,-239.1234 -4.66665,-12.27195 -4.61937,-11.8012 -1.49852,-14.92205 5.39139,-5.3914 10.42981,-2.53682 15.08293,8.54545 19.70309,46.92653 23.58241,101.50947 10.8228,152.27935 -9.90266,39.40219 -30.41326,75.97821 -59.74835,106.54769 -8.0899,8.43031 -11.25238,9.62342 -15.15738,5.71841 z M 362.64321,557.17126 c -2.08572,-2.3047 -2.12153,-5.56186 -0.0836,-7.59983 3.40018,-3.40018 8.42857,-0.73653 8.42857,4.46481 0,4.61484 -5.22827,6.57898 -8.34501,3.13502 z m 302.67755,-0.78649 c -3.60458,-5.50129 4.30468,-11.5962 8.07077,-6.21936 2.08825,2.98141 2.01839,5.14298 -0.23205,7.1796 -2.6826,2.42772 -5.87509,2.03664 -7.83872,-0.96024 z M 336.0339,512.55504 c -2.84426,-3.42712 1.07853,-9.22068 4.70432,-6.9478 3.56834,2.23687 2.28475,8.39276 -1.75,8.39276 -0.96531,0 -2.29475,-0.65023 -2.95432,-1.44496 z M 693.18822,512.8 c -3.38617,-3.38617 0.0508,-8.918 4.32961,-6.96846 4.0101,1.82712 2.82263,8.16846 -1.52961,8.16846 -0.88,0 -2.14,-0.54 -2.8,-1.2 z M 353.6182,460.08746 c -1.95428,-12.22136 -8.05889,-18.98982 -20.89678,-23.1692 l -7.93038,-2.58175 6.84859,-2.26421 c 12.83865,-4.24459 17.80739,-9.19129 21.27373,-21.17941 1.01667,-3.51609 2.06679,-5.71789 2.33359,-4.89289 0.2668,0.825 1.21371,4.00181 2.10425,7.05957 2.71827,9.33346 9.30542,15.52444 20.13702,18.92591 6.33793,1.99031 6.12306,2.63126 -1.6713,4.9855 -9.50448,2.87077 -15.41138,8.55482 -18.21625,17.52902 -3.26072,10.43269 -3.21741,10.37193 -3.98247,5.58746 z m 162.03255,-5.78443 c -1.2599,-7.08798 -3.98467,-24.65629 -6.04869,-38.99967 -0.28177,-1.95807 0.23794,-2.258 4.78503,-2.76156 5.09178,-0.56388 10.22684,-0.24943 11.15965,0.68338 0.8984,0.89841 -6.60313,48.15276 -7.84059,49.39023 -0.26986,0.26986 -1.19479,-3.47071 -2.0554,-8.31238 z m 155.51178,-13.61748 c -6.26733,-6.67127 3.03139,-16.3343 9.81278,-10.19723 2.62116,2.37212 2.72607,8.55631 0.18417,10.85669 -2.65509,2.40283 -7.41506,2.08883 -9.99695,-0.65946 z M 472.98822,380.04581 v -43.12086 l 9.25,0.28752 9.25,0.28753 0.26256,35.6834 0.26256,35.6834 -8.56116,6.8166 c -4.70864,3.74913 -8.9893,6.9666 -9.51256,7.14993 -0.59231,0.20752 -0.9514,-15.94199 -0.9514,-42.78752 z m 79.57256,36.01746 c -4.36009,-3.73467 -8.18509,-7.63922 -8.5,-8.67679 -0.31491,-1.03756 -0.44847,-17.29898 -0.29681,-36.13648 L 544.03971,337 h 8.97426 8.97425 v 43 c 0,23.65 -0.3375,42.96705 -0.75,42.92678 -0.4125,-0.0403 -4.31735,-3.12885 -8.67744,-6.86351 z M 499.97384,360.75 c -0.008,-23.7875 -0.67478,-58.55 -1.48195,-77.25 -3.34359,-77.46196 -0.81366,-100.21541 14.08591,-126.6845 4.73275,-8.40775 4.83928,-8.47569 7.22869,-4.60955 16.49512,26.68968 20.95167,55.34757 17.69593,113.79405 -1.03432,18.568 -1.95633,53.36123 -2.24583,84.75 L 534.76544,404 h -17.38861 -17.38861 z m 29.81917,-140.49805 c -0.27865,-4.3408 -0.51922,-4.74154 -2.80479,-4.67205 -1.375,0.0418 -6.8875,0.15343 -12.25,0.24805 l -9.75,0.17205 v 4.5 4.5 h 12.55479 12.55479 z M 415.98822,374.92182 c -21.79759,-22.62021 -37,-39.11216 -37,-40.13852 0,-0.43081 2.39412,-0.7833 5.32026,-0.7833 h 5.32025 l 24.67975,25.66653 c 13.57386,14.1166 24.67974,25.94609 24.67974,26.28778 0,0.34168 -1.2375,2.08525 -2.75,3.87459 l -2.75,3.25335 z m 272.2,16.87818 c -3.01932,-3.01932 0.0474,-7.80832 3.73608,-5.83421 2.31894,1.24106 2.53109,2.29278 1.02874,5.09995 -1.17958,2.20405 -3.01256,2.48652 -4.76482,0.73426 z m -215.2,-74.86352 v -14.06351 l 4.39278,-10.18649 c 2.41602,-5.60256 5.90119,-13.33648 7.74482,-17.18648 l 3.35204,-7 0.70059,7.5 c 0.78868,8.44297 2.80977,45.23322 2.80977,51.14661 V 331 h -9.5 -9.5 z m 71,2.44169 c 0,-13.5522 1.83991,-44.87993 2.82356,-48.07618 0.53469,-1.73741 2.1433,1.09152 7.67644,13.5 l 7,15.69801 0.32039,15.25 0.3204,15.25 h -9.0704 -9.07039 z m 116.5,-39.18212 c -1.1,-0.2408 -5.32237,-3.1101 -9.38304,-6.37623 -15.79341,-12.70315 -33.92557,-23.22678 -53.11696,-30.82826 -12.19543,-4.83046 -14.0115,-6.18217 -13.9682,-10.39655 0.10475,-10.19352 10.69405,-8.67497 39.4682,5.65989 18.47652,9.20474 44.85524,28.328 46.14071,33.44972 1.12511,4.48277 -4.32491,9.54565 -9.14071,8.49143 z M 367.1166,278.65469 c -2.52293,-3.03995 -2.40596,-7.17136 0.2939,-10.37995 6.80823,-8.09113 30.88608,-24.233 48.96621,-32.82712 23.47359,-11.15781 31.34845,-12.32822 33.20404,-4.93497 1.56964,6.25393 0.54699,7.16901 -14.59253,13.05755 -16.94377,6.5903 -38.69398,19.31261 -51.94592,30.38462 -7.57007,6.32479 -13.19858,7.98584 -15.9257,4.69987 z m 67.42832,-5.8772 c -4.39231,-6.2709 3.22456,-13.14877 8.40434,-7.58893 2.66755,2.86328 2.59088,6.31145 -0.18355,8.25474 -3.1364,2.19682 -6.40091,1.93243 -8.22079,-0.66581 z m 155.92072,-0.1716 c -3.98394,-6.08027 4.037,-13.11489 8.86759,-7.77715 1.92906,2.13159 2.18805,7.2382 0.45499,8.97126 -2.15121,2.15121 -7.58683,1.45498 -9.32258,-1.19411 z"
       id="path1"
       sodipodi:nodetypes="ssssssssscccscscssssssssssscccccscssssssssssssssssssssssssssssssssssssssssssssssssssssssssssssssssssssssscssssssssssssssssssscccccsssssscccssscsssssccccssscccccsssscssscsssssccsscssccccssscccccsssssssssssssssssssssss" />
    <text
       xml:space="preserve"
       id="text1"
       style="font-size:12px;font-family:'Nimbus Roman';-inkscape-font-specification:'Nimbus Roman, ';white-space:pre;shape-inside:url(#rect1);fill:#000000;stroke-width:1.335;stroke-linecap:square" />
    <text
       xml:space="preserve"
       id="text2"
       style="font-size:12px;font-family:'Nimbus Roman';-inkscape-font-specification:'Nimbus Roman, ';white-space:pre;shape-inside:url(#rect2);fill:#000000;stroke-width:1.335;stroke-linecap:square" />
    <text
       xml:space="preserve"
       id="text3"
       style="font-size:12px;font-family:'Nimbus Roman';-inkscape-font-specification:'Nimbus Roman, ';white-space:pre;shape-inside:url(#rect3);fill:#000000;stroke-width:1.335;stroke-linecap:square" />
    <text
       xml:space="preserve"
       style="font-style:normal;font-variant:normal;font-weight:900;font-stretch:normal;font-size:85.3333px;font-family:Arial;-inkscape-font-specification:'Arial, Heavy';font-variant-ligatures:normal;font-variant-caps:normal;font-variant-numeric:normal;font-variant-east-asian:normal;fill:#5c8a99;stroke-width:1.335;stroke-linecap:square;fill-opacity:1"
       x="253.75"
       y="782.125"
       id="text4"><tspan
         sodipodi:role="line"
         x="253.75"
         y="782.125"
         id="tspan5"
         style="font-style:normal;font-variant:normal;font-weight:900;font-stretch:normal;font-size:85.3333px;font-family:Arial;-inkscape-font-specification:'Arial, Heavy';font-variant-ligatures:normal;font-variant-caps:normal;font-variant-numeric:normal;font-variant-east-asian:normal;fill:#5c8a99;fill-opacity:1">LOCKHEED</tspan></text>
    <text
       xml:space="preserve"
       style="font-style:normal;font-variant:normal;font-weight:900;font-stretch:normal;font-size:53.3333px;font-family:Arial;-inkscape-font-specification:'Arial, Heavy';font-variant-ligatures:normal;font-variant-caps:normal;font-variant-numeric:normal;font-variant-east-asian:normal;fill:#5c8a99;stroke-width:1.335;stroke-linecap:square;fill-opacity:1"
       x="335.41666"
       y="848.17664"
       id="text6"><tspan
         sodipodi:role="line"
         id="tspan6"
         x="335.41666"
         y="848.17664">-  MARTINI  -</tspan></text>
  </g>
</svg>
